<svg width="27" height="27" viewBox="0 0 27 27" fill="none" xmlns="http://www.w3.org/2000/svg">
<path d="M13.5511 13.3041C12.5257 13.3041 11.5 12.9137 10.7195 12.133C9.15807 10.5718 9.15807 8.03123 10.7195 6.4698C11.4757 5.71339 12.4814 5.29688 13.5511 5.29688C14.6208 5.29688 15.6263 5.7136 16.3827 6.4698C17.9441 8.03123 17.9441 10.5718 16.3827 12.133C15.602 12.9137 14.5765 13.3041 13.5511 13.3041ZM13.5511 6.882C12.9313 6.882 12.3114 7.11786 11.8395 7.58979C10.8956 8.53365 10.8956 10.0693 11.8395 11.0132C12.2966 11.4703 12.9045 11.722 13.5511 11.722C14.1977 11.722 14.8056 11.4703 15.2627 11.0132C16.2066 10.0693 16.2066 8.53365 15.2627 7.58979C14.7908 7.11786 14.1709 6.882 13.5511 6.882Z" fill="white"/>
<path d="M13.5604 27L12.9479 26.2807C12.5895 25.8594 4.16602 15.8893 4.16602 9.38507C4.16602 4.2101 8.37611 0 13.5511 0C18.7261 0 22.9362 4.2101 22.9362 9.38507C22.9362 15.5694 14.5201 25.8374 14.1619 26.2714L13.5604 27ZM13.5511 1.58389C9.24953 1.58389 5.7499 5.08351 5.7499 9.38507C5.7499 11.8026 7.19144 15.3012 9.9188 19.5029C11.3342 21.6833 12.7595 23.5298 13.5424 24.5071C14.3267 23.5031 15.7655 21.5958 17.1898 19.3739C19.913 15.1261 21.3523 11.6718 21.3523 9.38507C21.3523 5.08351 17.8526 1.58389 13.5511 1.58389V1.58389Z" fill="white"/>
</svg>
