<svg width="27" height="27" viewBox="0 0 27 27" fill="none" xmlns="http://www.w3.org/2000/svg">
<path d="M24.6269 3.2168H2.37304C2.00775 3.2168 1.66577 3.3066 1.35637 3.45463L13.4473 15.5455L16.1572 12.9411C16.1572 12.9411 16.1574 12.9409 16.1575 12.9408C16.1575 12.9406 16.1578 12.9405 16.1578 12.9405L25.644 3.45484C25.3345 3.30671 24.9923 3.2168 24.6269 3.2168Z" fill="white"/>
<path d="M26.7625 4.57349L17.8355 13.5L26.7622 22.4268C26.9102 22.1174 27 21.7754 27 21.4101V5.58978C27 5.2247 26.9104 4.88277 26.7625 4.57349Z" fill="white"/>
<path d="M0.237832 4.57324C0.0898067 4.88263 0 5.22462 0 5.58991V21.4102C0 21.7753 0.0897012 22.1173 0.237621 22.4266L9.16466 13.5001L0.237832 4.57324Z" fill="white"/>
<path d="M16.7169 14.6185L14.0066 17.2232C13.8521 17.3777 13.6497 17.455 13.4473 17.455C13.245 17.455 13.0425 17.3777 12.8881 17.2232L10.2832 14.6184L1.35602 23.545C1.66547 23.6932 2.00766 23.7831 2.37306 23.7831H24.627C24.9923 23.7831 25.3342 23.6933 25.6436 23.5452L16.7169 14.6185Z" fill="white"/>
</svg>
