<svg width="27" height="27" viewBox="0 0 27 27" fill="none" xmlns="http://www.w3.org/2000/svg">
<g clip-path="url(#clip0)">
<path d="M26.0178 1.29588L20.5335 0.0302578C19.9376 -0.106852 19.3259 0.204281 19.0833 0.763265L16.552 6.66951C16.3305 7.18631 16.4782 7.79276 16.9159 8.14608L20.1116 10.7617C18.2132 14.8064 14.8962 18.1709 10.7671 20.1062L8.15144 16.9105C7.79285 16.4728 7.19168 16.3252 6.67488 16.5467L0.768629 19.0779C0.204371 19.3258 -0.106762 19.9375 0.0303474 20.5334L1.29597 26.0178C1.42781 26.5873 1.93406 26.9986 2.52996 26.9986C16.0352 26.9986 26.9987 16.0562 26.9987 2.52987C26.9987 1.93924 26.5927 1.42772 26.0178 1.29588Z" fill="white"/>
</g>
<defs>
<clipPath id="clip0">
<rect width="27" height="27" fill="white"/>
</clipPath>
</defs>
</svg>
