<svg width="66" height="65" viewBox="0 0 66 65" fill="none" xmlns="http://www.w3.org/2000/svg">
<g clip-path="url(#clip0)">
<path d="M53.5437 31.148L51.8855 17.7351L48.7783 18.1159L48.7795 18.1138L42.7555 14.738C42.113 14.3779 41.3756 14.2213 40.6413 14.2888L31.1296 15.1648C29.9604 15.2725 28.9156 15.9368 28.3257 16.9479L21.6216 28.4381C21.1266 29.2865 21.5152 30.3746 22.4371 30.7213L22.7113 30.8244C23.2389 31.0228 23.7811 31.1377 24.3231 31.1827L23.4736 31.9194L21.7741 33.3938L16.9405 37.4994C16.0801 38.2458 15.9907 39.5445 16.7402 40.4013L17.2306 40.9606C18.1931 42.0597 19.8685 42.1738 20.9744 41.2151L22.8217 43.325C23.4224 44.0119 24.3023 44.3157 25.1477 44.2121C25.6558 44.1499 26.1515 43.9401 26.5654 43.5796L28.4107 45.6897C29.0135 46.3783 29.8933 46.68 30.7387 46.5764C31.2468 46.5141 31.7426 46.3064 32.1567 45.946L33.1596 46.809C34.1224 47.9101 35.7997 48.0239 36.9056 47.0652L38.2688 45.8809L49.7299 36.9927L49.7422 36.9814L54.2641 36.9769L53.5437 31.148Z" fill="#F29F5C"/>
<path d="M48.6317 33.5258L48.6193 33.5371L37.1583 42.4253L35.795 43.6096C34.6893 44.5684 33.0119 44.4545 32.049 43.3534L31.0462 42.4904C30.6321 42.8508 30.1361 43.0586 29.6282 43.1208C28.7828 43.2244 27.9031 42.9227 27.3002 42.2341L25.4549 40.124C25.0408 40.4844 24.5451 40.6941 24.0372 40.7565C23.1918 40.8601 22.3118 40.5564 21.7112 39.8695L19.8638 37.7595C18.9171 38.5804 17.5539 38.6124 16.577 37.9153C16.0759 38.6676 16.116 39.6873 16.7405 40.4013L17.2309 40.9605C18.1934 42.0597 19.8688 42.1738 20.9747 41.215L22.822 43.325C23.4227 44.0118 24.3026 44.3156 25.148 44.212C25.6561 44.1498 26.1516 43.9401 26.5657 43.5795L28.4111 45.6897C29.0138 46.3783 29.8937 46.6801 30.7391 46.5765C31.2471 46.5142 31.7429 46.3065 32.157 45.9461L33.1599 46.8091C34.1227 47.9101 35.8 48.024 36.9059 47.0653L38.2691 45.8809L49.7302 36.9927L49.7425 36.9814L54.2644 36.977L53.7642 32.9302L48.6317 33.5258Z" fill="#D37D42"/>
<path d="M50.7188 39.3276L44.5781 34.0552L42.8705 32.5902L41.6486 31.5423L36.395 27.033L37.0018 21.8901C37.207 20.1507 36.1074 18.5223 34.4123 18.0553L22.9603 14.8998C21.7486 14.566 20.4679 15.1258 19.8947 16.2401L18.4546 19.0394L12.2727 18.6216L10.6893 32.0435L10.0011 37.8764L16.0185 38.2749L16.031 38.2862L28.6019 49.0763L29.9719 50.2531C31.0829 51.2058 32.7596 51.0826 33.7163 49.9762L35.5496 47.8579C35.9656 48.216 36.4627 48.4211 36.9712 48.4806C37.8171 48.5796 38.6953 48.2729 39.2942 47.581L41.1278 45.4608C41.5438 45.8189 42.0407 46.026 42.5491 46.0854C43.395 46.1844 44.2733 45.8758 44.8701 45.1855L46.7056 43.0654C47.8167 44.0181 49.4914 43.8947 50.4479 42.7902L50.9352 42.2282C51.68 41.3673 51.5833 40.0691 50.7188 39.3276Z" fill="#F9C295"/>
<path d="M50.7188 39.3275L48.8484 37.7216C49.4563 38.5243 49.4438 39.6662 48.7577 40.4592L48.2405 41.0557C47.2251 42.2281 45.4474 42.3592 44.2678 41.3478L42.3192 43.5985C41.6857 44.3311 40.7534 44.6587 39.8553 44.5537C39.3156 44.4906 38.7882 44.2708 38.3466 43.8906L36.4 46.1415C35.7642 46.8759 34.8321 47.2014 33.934 47.0964C33.3944 47.0333 32.8667 46.8156 32.425 46.4354L30.4787 48.6842C30.1121 49.1084 29.6451 49.3941 29.1434 49.5414L29.9719 50.2532C31.083 51.2059 32.7597 51.0827 33.7164 49.9763L35.5498 47.858C35.9658 48.2161 36.4629 48.4212 36.9713 48.4807C37.8172 48.5796 38.6954 48.273 39.2943 47.5811L41.1279 45.4609C41.5439 45.819 42.0408 46.0261 42.5492 46.0855C43.3951 46.1845 44.2734 45.8759 44.8702 45.1856L46.7057 43.0655C47.8168 44.0182 49.4916 43.8948 50.448 42.7903L50.9353 42.2283C51.68 41.3673 51.5834 40.069 50.7188 39.3275Z" fill="#E59F6A"/>
<path d="M16.3321 38.2613L15.6037 39.2191C14.8106 40.262 15.0166 41.7477 16.0639 42.5376C17.1113 43.3274 18.6033 43.1222 19.3966 42.0793L20.125 41.1216C20.9181 40.0787 20.7121 38.5929 19.6647 37.803C18.6174 37.0132 17.1252 37.2184 16.3321 38.2613Z" fill="#F29F5C"/>
<path d="M20.7683 40.2755L19.3966 42.0792C18.6035 43.1221 18.8095 44.6078 19.8568 45.3977C20.9042 46.1875 22.3962 45.9823 23.1895 44.9394L24.5612 43.1358C25.3543 42.0929 25.1483 40.6071 24.1009 39.8172C23.0535 39.0275 21.5614 39.2326 20.7683 40.2755Z" fill="#F29F5C"/>
<path d="M25.0588 42.4814L23.1894 44.9394C22.3962 45.9823 22.6023 47.4681 23.6496 48.258C24.697 49.0478 26.189 48.8426 26.9823 47.7997L28.8517 45.3416C29.6448 44.2987 29.4388 42.813 28.3914 42.0231C27.3441 41.2333 25.852 41.4384 25.0588 42.4814Z" fill="#F29F5C"/>
<path d="M28.9602 45.199L26.9822 47.7996C26.1891 48.8426 26.3951 50.3283 27.4425 51.1182C28.4899 51.908 29.9819 51.7028 30.7752 50.6599L32.7531 48.0593C33.5462 47.0163 33.3402 45.5306 32.2928 44.7407C31.2453 43.9509 29.7533 44.1561 28.9602 45.199Z" fill="#F29F5C"/>
<path d="M48.7797 18.1138L42.7556 14.738C42.1131 14.378 41.3756 14.2213 40.6414 14.2888L31.1297 15.1648C29.9605 15.2725 28.9157 15.9368 28.3257 16.9479L21.6217 28.4381C21.1266 29.2867 21.5152 30.3747 22.4371 30.7214L22.7113 30.8245C25.1688 31.7487 27.944 30.9622 29.5444 28.8882L32.113 25.5595C32.113 25.5595 38.2874 32.6781 45.0853 24.3648" fill="#F29F5C"/>
<path d="M61.3882 13.4007L64.539 38.8867L57.1714 39.7898C55.7789 39.9605 54.5113 38.9749 54.3398 37.5883L51.8098 17.1234C51.6385 15.7368 52.6282 14.4745 54.0207 14.3037L61.3882 13.4007Z" fill="#5C9CEE"/>
<path d="M57.0482 36.9136C55.6154 37.0893 54.3031 36.148 53.992 34.7746L54.3398 37.5883C54.5111 38.9748 55.7789 39.9604 57.1714 39.7898L64.539 38.8866L64.1868 36.0385L57.0482 36.9136Z" fill="#3580D3"/>
<path d="M4.32601 13.4011L1.17528 38.8872L8.54283 39.7904C9.93531 39.961 11.203 38.9754 11.3744 37.5889L13.9044 17.1239C14.0758 15.7373 13.086 14.475 11.6936 14.3043L4.32601 13.4011Z" fill="#ED5575"/>
<path d="M8.71621 36.8503L1.53581 35.9701L1.17526 38.8867L8.54282 39.7899C9.93529 39.9605 11.203 38.975 11.3744 37.5884L11.6417 35.4266C11.0535 36.4042 9.92522 36.9986 8.71621 36.8503Z" fill="#CC3A60"/>
<path d="M59.3757 36.53C60.3966 36.53 61.2241 35.706 61.2241 34.6894C61.2241 33.6729 60.3966 32.8489 59.3757 32.8489C58.3549 32.8489 57.5274 33.6729 57.5274 34.6894C57.5274 35.706 58.3549 36.53 59.3757 36.53Z" fill="#EBEEF2"/>
<path d="M6.23544 36.53C7.25628 36.53 8.08383 35.706 8.08383 34.6894C8.08383 33.6729 7.25628 32.8489 6.23544 32.8489C5.21461 32.8489 4.38705 33.6729 4.38705 34.6894C4.38705 35.706 5.21461 36.53 6.23544 36.53Z" fill="#EBEEF2"/>
<path d="M32.8692 43.9818C32.0908 43.3947 31.1349 43.2008 30.2432 43.3663C30.1031 42.525 29.6533 41.7811 28.9679 41.2641C28.2576 40.7285 27.3807 40.5005 26.4981 40.6217C26.2795 40.6518 26.0671 40.7026 25.8628 40.7725C25.6693 40.1118 25.2693 39.5049 24.6771 39.0583C23.7017 38.3226 22.4477 38.2049 21.3905 38.6378C21.18 38.007 20.7847 37.454 20.241 37.0439C19.5309 36.5083 18.6535 36.2805 17.7713 36.4016C17.0556 36.5 16.4062 36.8186 15.8993 37.3126L12.3994 37.0809L14.5446 19.7286L18.3885 19.9887C18.4103 19.9901 18.4319 19.9909 18.4535 19.9909C18.8102 19.9909 19.1398 19.7923 19.3041 19.4729L20.7446 16.674C21.1096 15.9655 21.9336 15.6053 22.7041 15.8177L24.8434 16.4068C25.352 16.5465 25.879 16.2496 26.0199 15.7428C26.1606 15.236 25.8621 14.7114 25.3531 14.5713L23.2142 13.9824C21.5746 13.5304 19.8203 14.2967 19.0433 15.805L17.8898 18.0461L14.7788 17.8356L14.8525 17.2395C15.0881 15.334 13.723 13.5931 11.8095 13.3585L4.44194 12.4559C3.91693 12.3919 3.44062 12.7627 3.37611 13.2845C3.3116 13.8064 3.68426 14.2816 4.20825 14.3458L11.5758 15.249C11.9957 15.3004 12.3704 15.5116 12.6308 15.8437C12.8911 16.1758 13.0061 16.5891 12.9544 17.0073L10.4244 37.472C10.3177 38.3352 9.52544 38.9505 8.65862 38.8449L1.2911 37.9418C0.766339 37.878 0.289772 38.2485 0.225261 38.7704C0.16075 39.2923 0.53341 39.7675 1.0574 39.8317L8.42493 40.7348C8.56925 40.7525 8.71268 40.7611 8.85458 40.7611C10.1461 40.7611 11.3112 40.0466 11.9149 38.9575L14.5332 39.1308C14.2202 39.7341 14.1003 40.417 14.1954 41.1034C14.3172 41.982 14.7755 42.761 15.4856 43.2965C16.0712 43.7382 16.7701 43.9706 17.4922 43.9706C17.6458 43.9706 17.8005 43.9601 17.9554 43.9389C17.9653 43.9375 17.975 43.9356 17.9848 43.934C17.9861 43.9439 17.9869 43.9537 17.9881 43.9636C18.11 44.8423 18.5682 45.6212 19.2784 46.1567C19.8795 46.61 20.5863 46.8289 21.2879 46.8289C21.4524 46.8289 21.6164 46.8156 21.7789 46.7917C21.889 47.6459 22.329 48.4572 23.0712 49.017C23.6724 49.4703 24.3792 49.6892 25.0808 49.6892C25.2447 49.6892 25.4083 49.676 25.5702 49.6522C25.5716 49.6628 25.5724 49.6734 25.5738 49.684C25.6957 50.5626 26.1539 51.3416 26.8641 51.8771C27.4497 52.3186 28.1486 52.5512 28.8706 52.5512C29.0244 52.5512 29.179 52.5407 29.3338 52.5195C30.2163 52.3981 30.9985 51.9418 31.5362 51.2347L33.5141 48.6341C34.6246 47.1744 34.3352 45.0873 32.8692 43.9818ZM17.6939 42.0526C17.3176 42.1044 16.9433 42.007 16.6404 41.7785C16.3375 41.5501 16.142 41.2178 16.09 40.843C16.038 40.4681 16.1358 40.0956 16.3653 39.7939L17.0936 38.8361C17.323 38.5345 17.6568 38.3399 18.0331 38.2881C18.4096 38.2367 18.7837 38.3337 19.0867 38.5622C19.3897 38.7906 19.5851 39.1229 19.6371 39.4977C19.6891 39.8724 19.5913 40.2449 19.362 40.5467L18.6335 41.5044C18.404 41.8061 18.0704 42.0008 17.6939 42.0526ZM20.4332 44.6388C20.1303 44.4104 19.9348 44.078 19.8828 43.7032C19.8308 43.3284 19.9286 42.9559 20.158 42.6541L20.8864 41.6965C20.8864 41.6965 20.8865 41.6964 20.8865 41.6963L21.5297 40.8505C21.8092 40.4831 22.2349 40.2897 22.6656 40.2897C22.9648 40.2897 23.2663 40.3832 23.5227 40.5765C24.148 41.0482 24.2716 41.9384 23.798 42.5612L22.4263 44.3648C21.9526 44.9875 21.0585 45.1104 20.4332 44.6388ZM24.2261 47.499C23.9232 47.2706 23.7277 46.9383 23.6757 46.5634C23.6237 46.1887 23.7213 45.8162 23.9506 45.5147C23.9507 45.5146 23.9507 45.5145 23.9508 45.5144L25.3225 43.7106L25.8202 43.0562C26.0496 42.7545 26.3834 42.5599 26.7599 42.5081C27.1365 42.4566 27.5104 42.5537 27.8135 42.7822C28.4385 43.2536 28.5621 44.1434 28.0891 44.7661L26.2192 47.2248C26.219 47.2249 26.2189 47.225 26.2189 47.2252C25.7451 47.8476 24.8516 47.9706 24.2261 47.499ZM31.9898 47.4845L30.0119 50.0852C29.7826 50.3868 29.4488 50.5814 29.0724 50.6332C28.6957 50.6849 28.3218 50.5876 28.0188 50.3592C27.7159 50.1309 27.5205 49.7985 27.4685 49.4237C27.4164 49.0488 27.5142 48.6764 27.7437 48.3746L29.6133 45.9165C29.6136 45.9162 29.6139 45.9156 29.6143 45.9153L29.7218 45.774C29.9511 45.4723 30.2849 45.2777 30.6614 45.2259C31.0379 45.1745 31.4119 45.2715 31.715 45.5C32.3399 45.9714 32.4635 46.8618 31.9898 47.4845Z" fill="black"/>
<path d="M65.488 38.7707C65.4235 38.2489 64.9468 37.8784 64.4222 37.9421L57.0548 38.8452C56.1867 38.9515 55.3957 38.3355 55.289 37.4724L55.2136 36.8616L55.1961 36.7202L52.7592 17.0076C52.7074 16.5894 52.8224 16.1763 53.0828 15.8441C53.3431 15.512 53.7178 15.3007 54.1378 15.2493L61.5053 14.3462C62.0294 14.2819 62.402 13.8067 62.3374 13.2848C62.2729 12.7631 61.7962 12.3925 61.2716 12.4562L53.9041 13.3594C52.1035 13.5801 50.7891 15.1347 50.8364 16.905L48.9784 17.1328L43.2252 13.9088C42.4105 13.4518 41.487 13.2555 40.5544 13.3408C40.5525 13.341 40.5505 13.3415 40.5486 13.3416L38.8169 13.501C38.291 13.5494 37.9042 14.0132 37.9529 14.5369C38.0015 15.0604 38.4664 15.4449 38.9931 15.3972L40.7297 15.2373C41.273 15.1872 41.8116 15.3017 42.2869 15.5681L48.2518 18.9108C48.4385 19.0334 48.6657 19.0895 48.8954 19.0614L51.0534 18.797L52.6362 31.5993L53.1835 36.0266L49.7416 36.0294C49.5121 36.0296 49.2905 36.1119 49.1173 36.2611L48.8509 36.4675L40.2098 29.0515C42.1845 28.4862 44.0669 27.1187 45.8269 24.9665C46.1603 24.5587 46.0988 23.959 45.6893 23.6269C45.2797 23.2949 44.6773 23.3563 44.344 23.764C42.3767 26.1698 40.3083 27.4081 38.196 27.4444C35.1187 27.502 32.8577 24.9612 32.8369 24.9374C32.6488 24.7209 32.3732 24.601 32.0858 24.608C31.7985 24.6161 31.5301 24.7527 31.3549 24.9796L28.7863 28.3083C27.433 30.0623 25.1276 30.7158 23.0493 29.9341L22.7751 29.8308C22.5342 29.7402 22.4361 29.5528 22.3991 29.4491C22.3621 29.3454 22.3193 29.1383 22.4486 28.9167L29.1526 17.4265C29.5862 16.6834 30.3583 16.1924 31.2179 16.1132L35.1871 15.7477C35.713 15.6992 36.0998 15.2355 36.0511 14.7119C36.0024 14.1884 35.5367 13.8033 35.0109 13.8516L31.0417 14.2171C29.5672 14.3529 28.2428 15.1951 27.4989 16.47L20.7949 27.9601C20.4175 28.607 20.3453 29.3823 20.5971 30.0873C20.8489 30.7923 21.3965 31.3481 22.0992 31.6124L22.3735 31.7156C23.1823 32.0198 24.0157 32.1666 24.838 32.1666C26.9357 32.1665 28.959 31.2101 30.3027 29.4686L32.2191 26.9852C33.246 27.8665 35.1618 29.1718 37.6074 29.3322L50.0946 40.049C50.3191 40.2416 50.4549 40.5097 50.4768 40.804C50.4988 41.0983 50.4044 41.3835 50.2113 41.6068L49.7246 42.1689C49.1133 42.874 48.0387 42.9523 47.3293 42.3438C47.2897 42.3098 47.2475 42.2806 47.2042 42.2542L43.9626 39.4709C43.5629 39.1276 42.959 39.172 42.614 39.5703C42.2691 39.9685 42.3139 40.5698 42.7138 40.9132L45.3481 43.175L44.1465 44.5636C43.7773 44.99 43.2216 45.2054 42.6608 45.1398C42.3251 45.1005 42.0108 44.9622 41.752 44.7399C41.7474 44.736 41.7425 44.7327 41.7379 44.7289L38.7259 42.1428C38.3259 41.7996 37.7223 41.844 37.3773 42.2422C37.0324 42.6405 37.0772 43.2417 37.4771 43.5851L39.7788 45.5614L38.5701 46.9593C38.2007 47.3859 37.6439 47.6013 37.0829 47.5355C36.5583 47.4738 36.0832 47.8478 36.0216 48.37C35.9601 48.8923 36.3351 49.3654 36.8596 49.4267C37.0013 49.4432 37.1426 49.4515 37.2833 49.4515C38.3275 49.4515 39.3269 49.0012 40.0189 48.2023L41.3112 46.7079C41.6642 46.8755 42.0437 46.9851 42.4374 47.0311C43.6308 47.1708 44.8104 46.7131 45.595 45.8069L46.8895 44.3111C48.3209 44.9872 50.089 44.6628 51.1727 43.4127L51.66 42.85C52.1868 42.241 52.4439 41.4641 52.3841 40.6627C52.3243 39.8611 51.9545 39.1308 51.3433 38.6066L50.5584 37.9331L53.4271 37.9307C53.7406 39.576 55.1947 40.7616 56.8586 40.7616C57.0004 40.7616 57.144 40.753 57.2882 40.7353L64.6558 39.8322C65.1799 39.7678 65.5525 39.2927 65.488 38.7707Z" fill="black"/>
<path d="M59.3758 31.8967C57.8293 31.8967 56.571 33.1495 56.571 34.6894C56.571 36.2294 57.8293 37.4823 59.3758 37.4823C60.9222 37.4823 62.1803 36.2294 62.1803 34.6894C62.1803 33.1495 60.9222 31.8967 59.3758 31.8967ZM59.3758 35.578C58.8838 35.578 58.4834 35.1794 58.4834 34.6894C58.4834 34.1995 58.8838 33.801 59.3758 33.801C59.8678 33.801 60.268 34.1995 60.268 34.6894C60.268 35.1794 59.8678 35.578 59.3758 35.578Z" fill="black"/>
<path d="M9.04003 34.6896C9.04003 33.1496 7.78194 31.8969 6.23545 31.8969C4.68896 31.8969 3.43086 33.1496 3.43086 34.6896C3.43086 36.2295 4.68896 37.4824 6.23545 37.4824C7.78194 37.4824 9.04003 36.2295 9.04003 34.6896ZM5.34325 34.6896C5.34325 34.1997 5.74345 33.8011 6.23545 33.8011C6.72744 33.8011 7.12764 34.1997 7.12764 34.6896C7.12764 35.1795 6.72744 35.5781 6.23545 35.5781C5.74345 35.5781 5.34325 35.1795 5.34325 34.6896Z" fill="black"/>
</g>
<defs>
<clipPath id="clip0">
<rect x="0.218933" width="65.2763" height="65" fill="white"/>
</clipPath>
</defs>
</svg>
