<svg width="66" height="65" viewBox="0 0 66 65" fill="none" xmlns="http://www.w3.org/2000/svg">
<g clip-path="url(#clip0)">
<path d="M41.022 62.2705H6.85392C4.03747 62.2705 1.75421 59.9969 1.75421 57.1924V7.80762C1.75421 5.0031 4.03747 2.72949 6.85392 2.72949H41.022C43.8384 2.72949 46.1217 5.0031 46.1217 7.80762V57.1924C46.1217 59.9969 43.8384 62.2705 41.022 62.2705Z" fill="#79B2FF"/>
<path d="M7.87386 8.56934H40.002V22.915H7.87386V8.56934Z" fill="#F9F9F9"/>
<path d="M20.3681 28.501H27.5077V34.0869H20.3681V28.501Z" fill="#E1E3E9"/>
<path d="M7.87386 28.501H15.0135V34.0869H7.87386V28.501Z" fill="#D8EC84"/>
<path d="M40.002 34.0869H32.8624V28.501H40.002V34.0869Z" fill="#E1E3E9"/>
<path d="M40.002 45.2588H32.8624V39.6729H40.002V45.2588Z" fill="#E1E3E9"/>
<path d="M40.002 56.4307H32.8624V50.8447H40.002V56.4307Z" fill="#F5737F"/>
<path d="M20.3681 39.6729H27.5077V45.2588H20.3681V39.6729Z" fill="#E1E3E9"/>
<path d="M7.87386 39.6729H15.0135V45.2588H7.87386V39.6729Z" fill="#E1E3E9"/>
<path d="M20.3681 50.8447H27.5077V56.4307H20.3681V50.8447Z" fill="#E1E3E9"/>
<path d="M7.87386 50.8447H15.0135V56.4307H7.87386V50.8447Z" fill="#E1E3E9"/>
<path d="M40.002 40.9424H64.4807V48.0518H40.002V40.9424Z" fill="#FFCB7C"/>
<path d="M40.002 48.0518H64.4807V55.1611H40.002V48.0518Z" fill="#FFD89E"/>
<path d="M40.002 55.1611H64.4807V62.2705H40.002V55.1611Z" fill="#FFCB7C"/>
<path d="M7.87386 24.1846H40.002C40.7061 24.1846 41.277 23.6162 41.277 22.915V8.56934C41.277 7.86817 40.7061 7.2998 40.002 7.2998H29.6751C28.9711 7.2998 28.4002 7.86817 28.4002 8.56934C28.4002 9.2705 28.9711 9.83887 29.6751 9.83887H38.7271V21.6455H9.14879V9.83887H18.2008C18.9048 9.83887 19.4757 9.2705 19.4757 8.56934C19.4757 7.86817 18.9048 7.2998 18.2008 7.2998H7.87386C7.16984 7.2998 6.59893 7.86817 6.59893 8.56934V22.915C6.59893 23.6162 7.16984 24.1846 7.87386 24.1846Z" fill="black"/>
<path d="M52.6348 29.3474H54.9297V31.6325C54.9297 32.3337 55.5006 32.9021 56.2046 32.9021C56.9086 32.9021 57.4795 32.3337 57.4795 31.6325V29.3474H59.7744C60.4784 29.3474 61.0493 28.779 61.0493 28.0779C61.0493 27.3767 60.4784 26.8083 59.7744 26.8083H57.4795V24.5232C57.4795 23.822 56.9086 23.2537 56.2046 23.2537C55.5006 23.2537 54.9297 23.822 54.9297 24.5232V26.8083H52.6348C51.9308 26.8083 51.3599 27.3767 51.3599 28.0779C51.3599 28.779 51.9306 29.3474 52.6348 29.3474Z" fill="black"/>
<path d="M27.5077 27.2314H20.3682C19.6641 27.2314 19.0932 27.7998 19.0932 28.501V34.0869C19.0932 34.7881 19.6641 35.3564 20.3682 35.3564H27.5077C28.2118 35.3564 28.7827 34.7881 28.7827 34.0869V28.501C28.7827 27.7998 28.2118 27.2314 27.5077 27.2314ZM26.2328 32.8174H21.6431V29.7705H26.2328V32.8174Z" fill="black"/>
<path d="M15.0135 27.2314H7.87386C7.16984 27.2314 6.59893 27.7998 6.59893 28.501V34.0869C6.59893 34.7881 7.16984 35.3564 7.87386 35.3564H15.0135C15.7175 35.3564 16.2884 34.7881 16.2884 34.0869V28.501C16.2884 27.7998 15.7175 27.2314 15.0135 27.2314ZM13.7385 32.8174H9.14879V29.7705H13.7385V32.8174Z" fill="black"/>
<path d="M40.002 27.2314H32.8624C32.1584 27.2314 31.5875 27.7998 31.5875 28.501V34.0869C31.5875 34.7881 32.1584 35.3564 32.8624 35.3564H40.002C40.7061 35.3564 41.277 34.7881 41.277 34.0869V28.501C41.277 27.7998 40.7061 27.2314 40.002 27.2314ZM38.7271 32.8174H34.1374V29.7705H38.7271V32.8174Z" fill="black"/>
<path d="M27.5077 38.4033H20.3682C19.6641 38.4033 19.0932 38.9717 19.0932 39.6729V45.2588C19.0932 45.96 19.6641 46.5283 20.3682 46.5283H27.5077C28.2118 46.5283 28.7827 45.96 28.7827 45.2588V39.6729C28.7827 38.9717 28.2118 38.4033 27.5077 38.4033ZM26.2328 43.9893H21.6431V40.9424H26.2328V43.9893Z" fill="black"/>
<path d="M15.0135 38.4033H7.87386C7.16984 38.4033 6.59893 38.9717 6.59893 39.6729V45.2588C6.59893 45.96 7.16984 46.5283 7.87386 46.5283H15.0135C15.7175 46.5283 16.2884 45.96 16.2884 45.2588V39.6729C16.2884 38.9717 15.7175 38.4033 15.0135 38.4033ZM13.7385 43.9893H9.14879V40.9424H13.7385V43.9893Z" fill="black"/>
<path d="M27.5077 49.5752H20.3682C19.6641 49.5752 19.0932 50.1436 19.0932 50.8447V56.4307C19.0932 57.1318 19.6641 57.7002 20.3682 57.7002H27.5077C28.2118 57.7002 28.7827 57.1318 28.7827 56.4307V50.8447C28.7827 50.1436 28.2118 49.5752 27.5077 49.5752ZM26.2328 55.1611H21.6431V52.1143H26.2328V55.1611Z" fill="black"/>
<path d="M15.0135 49.5752H7.87386C7.16984 49.5752 6.59893 50.1436 6.59893 50.8447V56.4307C6.59893 57.1318 7.16984 57.7002 7.87386 57.7002H15.0135C15.7175 57.7002 16.2884 57.1318 16.2884 56.4307V50.8447C16.2884 50.1436 15.7175 49.5752 15.0135 49.5752ZM13.7385 55.1611H9.14879V52.1143H13.7385V55.1611Z" fill="black"/>
<path d="M23.9379 9.83887C24.2733 9.83887 24.6022 9.70303 24.8392 9.46689C25.0763 9.23076 25.2129 8.90322 25.2129 8.56934C25.2129 8.23545 25.0765 7.90791 24.8392 7.67178C24.6022 7.43564 24.2733 7.2998 23.9379 7.2998C23.6012 7.2998 23.2737 7.43564 23.0366 7.67178C22.7994 7.90791 22.663 8.23545 22.663 8.56934C22.663 8.90322 22.7993 9.23076 23.0366 9.46689C23.2738 9.70303 23.6026 9.83887 23.9379 9.83887Z" fill="black"/>
<path d="M64.4807 39.6729H47.3966V7.80762C47.3966 4.30752 44.537 1.45996 41.022 1.45996H6.85392C3.33894 1.45996 0.479279 4.30752 0.479279 7.80762V57.1924C0.479279 60.6925 3.33894 63.54 6.85392 63.54H64.4807C65.1847 63.54 65.7556 62.9717 65.7556 62.2705V40.9424C65.7556 40.2412 65.1847 39.6729 64.4807 39.6729ZM38.7271 43.9893H34.1374V40.9424H38.7271V43.9893ZM38.7271 55.1611H34.1374V52.1143H38.7271V55.1611ZM41.277 49.3213H63.2057V53.8916H41.277V49.3213ZM63.2057 46.7822H41.277V42.2119H63.2057V46.7822ZM3.02913 57.1924V7.80762C3.02913 5.70756 4.74493 3.99902 6.85392 3.99902H41.022C43.131 3.99902 44.8468 5.70756 44.8468 7.80762V39.6729H41.277C41.277 38.9717 40.7061 38.4033 40.002 38.4033H32.8624C32.1584 38.4033 31.5875 38.9717 31.5875 39.6729V45.2588C31.5875 45.9599 32.1584 46.5283 32.8624 46.5283H38.7271V49.5752H32.8624C32.1584 49.5752 31.5875 50.1436 31.5875 50.8447V56.4307C31.5875 57.1318 32.1584 57.7002 32.8624 57.7002H38.7271V61.001H6.85392C4.74493 61.001 3.02913 59.2924 3.02913 57.1924ZM63.2057 61.001H41.277V56.4307H63.2057V61.001Z" fill="black"/>
</g>
<defs>
<clipPath id="clip0">
<rect x="0.479279" width="65.2763" height="65" fill="white"/>
</clipPath>
</defs>
</svg>
