<svg width="66" height="65" viewBox="0 0 66 65" fill="none" xmlns="http://www.w3.org/2000/svg">
<g clip-path="url(#clip0)">
<path d="M18.4254 28.8965C19.9721 27.7885 20.5113 25.7431 19.7105 24.0215C18.0017 20.0526 16.9438 15.8362 16.5772 11.5334C16.3587 9.57009 14.6768 8.09414 12.6933 8.12499H2.15529C1.03973 8.12486 0.13096 9.01708 0.115406 10.1278C0.103166 19.2161 2.37228 28.1634 6.71646 36.1562L12.5995 32.6218C12.5995 32.6218 15.7776 30.7246 18.4254 28.8965Z" fill="#2196F3"/>
<path d="M53.7964 48.6077C49.477 48.2421 45.2444 47.1902 41.2593 45.4918C39.5324 44.691 37.4777 45.2247 36.3636 46.7634C34.5317 49.3918 32.6265 52.528 32.6265 52.528L29.0812 58.4186C37.1072 62.7475 46.0925 65.0098 55.2202 64.9999C56.3356 64.9843 57.2317 64.0795 57.2315 62.9686V52.4752C57.2619 50.4959 55.7729 48.8195 53.7964 48.6077Z" fill="#2196F3"/>
<path d="M44.9922 0C33.7443 0 24.5934 7.28811 24.5934 16.25C24.653 20.5808 26.6778 24.6522 30.1011 27.3243L28.714 34.1249C28.4887 35.2241 29.2009 36.297 30.3047 36.5214C30.4391 36.5487 30.5759 36.5624 30.7131 36.5624C31.0581 36.5618 31.3976 36.4752 31.7004 36.3106L39.6355 31.9271C41.3953 32.3084 43.1913 32.5004 44.9922 32.4999C56.2401 32.4999 65.391 25.2118 65.391 16.25C65.391 7.28811 56.2401 0 44.9922 0Z" fill="#4CAF50"/>
<path d="M55.1919 64.9999C46.9536 65.0142 38.8176 63.1828 31.3865 59.6415C20.0797 54.2107 10.9538 45.1262 5.49632 33.869C1.93915 26.4666 0.100068 18.3624 0.115112 10.1562C0.115112 9.03436 1.02834 8.125 2.15499 8.125H12.5584C14.6686 8.13858 16.4201 9.75241 16.5973 11.8462C16.9989 16.2445 18.128 20.5465 19.9387 24.5781C20.8295 26.5509 20.0115 28.8728 18.0783 29.8593L10.0738 33.869C14.8907 42.8866 22.302 50.2665 31.3579 55.063L35.3887 47.1249C36.3795 45.1999 38.7112 44.3854 40.6924 45.2724C44.7402 47.0783 49.0609 48.2026 53.4784 48.5996C55.5811 48.7761 57.2018 50.5202 57.2154 52.6215V62.9686C57.2154 64.0842 56.312 64.991 55.1919 64.9999ZM35.046 56.8343C40.7787 59.2869 46.917 60.6641 53.152 60.8968V52.6093C48.2763 52.1898 43.5067 50.9537 39.0442 48.953L35.046 56.8343ZM4.23567 12.1875C4.46796 18.3962 5.85113 24.5088 8.31543 30.2168L16.2465 26.2437C14.2282 21.8066 12.9731 17.0632 12.5339 12.2119L4.23567 12.1875Z" fill="black"/>
<path d="M30.7131 36.5624C29.5864 36.5627 28.6731 35.6534 28.6728 34.5316C28.6728 34.395 28.6866 34.2587 28.714 34.1249L30.1052 27.3243C26.6795 24.6537 24.6527 20.5819 24.5934 16.25C24.5934 7.28811 33.7443 0 44.9922 0C56.2401 0 65.391 7.28811 65.391 16.25C65.391 25.2118 56.2401 32.4999 44.9922 32.4999C43.1926 32.5007 41.398 32.3086 39.6396 31.9271L31.7004 36.3106C31.3975 36.4752 31.0581 36.5618 30.7131 36.5624ZM34.3849 26.4996C34.3831 26.6439 34.3708 26.7878 34.3482 26.9303L33.5934 30.619L38.3341 28.0028C38.6361 27.8356 38.9759 27.7475 39.3214 27.7468L39.3418 29.8146L39.3214 27.7468C39.5013 27.7466 39.6807 27.767 39.8558 27.8078C41.5357 28.2262 43.2606 28.4377 44.9922 28.4374C53.9922 28.4374 61.3113 22.9693 61.3113 16.25C61.3113 9.53061 53.9922 4.06249 44.9922 4.06249C35.9923 4.06249 28.6732 9.53061 28.6732 16.25C28.7864 19.7344 30.6042 22.9433 33.5404 24.8421C33.9026 25.102 34.1692 25.4731 34.2992 25.8984C34.3554 26.0815 34.3842 26.2716 34.3849 26.4631V26.4996Z" fill="black"/>
</g>
<defs>
<clipPath id="clip0">
<rect x="0.114746" width="65.2763" height="65" fill="white"/>
</clipPath>
</defs>
</svg>
