<svg width="85" height="85" viewBox="0 0 85 85" fill="none" xmlns="http://www.w3.org/2000/svg">
<path d="M85 12.4512V72.5488C85 79.4216 79.4216 85 72.5488 85H52.4609L47.4805 80.0195H42.5L37.5195 85H12.4512C5.57838 85 0 79.4216 0 72.5488V12.4512C0 5.57838 5.57838 0 12.4512 0H72.5488C79.4216 0 85 5.57838 85 12.4512Z" fill="#7984EB"/>
<path d="M85 12.4512V72.5488C85 79.4216 79.4216 85 72.5488 85H52.4609L47.4805 80.0195H44.9902V0H72.5488C79.4216 0 85 5.57838 85 12.4512Z" fill="#4661D1"/>
<path d="M52.4609 29.8828V39.8438H67.4023L64.9121 54.7852H52.4609V85H37.5195V54.7852H27.5586V39.8438H37.5195V29.8828C37.5195 24.3544 40.5577 19.523 44.9902 16.9336C47.1815 15.6885 49.7716 14.9414 52.4609 14.9414H67.4023V29.8828H52.4609Z" fill="#ECECF1"/>
<path d="M52.4609 29.8828V39.8438H67.4023L64.9121 54.7852H52.4609V85H44.9902V16.9336C47.1815 15.6885 49.7716 14.9414 52.4609 14.9414H67.4023V29.8828H52.4609Z" fill="#E2E2E7"/>
</svg>
