<svg width="67" height="65" viewBox="0 0 67 65" fill="none" xmlns="http://www.w3.org/2000/svg">
<g clip-path="url(#clip0)">
<path d="M48.8724 22.9785C47.8163 22.9785 46.96 22.1259 46.96 21.0742V13.457C46.96 8.20688 51.2495 3.93555 56.522 3.93555H60.3468C63.5102 3.93555 66.0839 6.49835 66.0839 9.64844C66.0839 12.7985 63.5102 15.3613 60.3468 15.3613H56.522C53.3585 15.3613 50.7848 17.9241 50.7848 21.0742C50.7848 22.1259 49.9286 22.9785 48.8724 22.9785ZM56.522 7.74414C53.3585 7.74414 50.7848 10.3069 50.7848 13.457V13.4616C52.384 12.2637 54.3713 11.5527 56.522 11.5527H60.3468C61.4013 11.5527 62.2592 10.6985 62.2592 9.64844C62.2592 8.59841 61.4013 7.74414 60.3468 7.74414H56.522Z" fill="#444444"/>
<path d="M33.5733 61.0645H2.72004C1.66389 61.0645 0.807648 60.2118 0.807648 59.1602V55.3516C0.807648 54.2999 1.66389 53.4473 2.72004 53.4473C3.77619 53.4473 4.63243 54.2999 4.63243 55.3516V57.2559H33.5733C34.6294 57.2559 35.4857 58.1085 35.4857 59.1602C35.4857 60.2118 34.6294 61.0645 33.5733 61.0645Z" fill="#D2DCE7"/>
<path d="M52.6972 19.1699H45.0476C33.4483 19.1699 24.0113 28.567 24.0113 40.1172V51.543C24.0113 56.7925 28.3002 61.0645 33.5733 61.0645H52.6972C60.079 61.0645 66.0839 55.085 66.0839 47.7344V32.5C66.0839 25.1494 60.079 19.1699 52.6972 19.1699Z" fill="#FED843"/>
<path d="M66.0839 32.5V47.7344C66.0839 55.085 60.079 61.0645 52.6972 61.0645H45.0476V19.1699H52.6972C60.079 19.1699 66.0839 25.1494 66.0839 32.5Z" fill="#FFB64C"/>
<path d="M45.0476 26.7871C37.6658 26.7871 31.6609 32.7666 31.6609 40.1172C31.6609 47.4678 37.6658 53.4473 45.0476 53.4473C52.4295 53.4473 58.4344 47.4678 58.4344 40.1172C58.4344 32.7666 52.4295 26.7871 45.0476 26.7871Z" fill="#6E6E6E"/>
<path d="M58.4344 40.1172C58.4344 47.4678 52.4295 53.4473 45.0476 53.4473V26.7871C52.4295 26.7871 58.4344 32.7666 58.4344 40.1172Z" fill="#444444"/>
<path d="M50.2251 43.3685L46.4003 47.177C45.9783 47.5973 45.5028 47.7661 45.0476 47.7547C43.5866 47.7204 42.3295 45.844 43.6949 44.4831L45.0476 43.1374L45.6443 42.5433L45.0476 42.2462L40.3674 39.9166C39.2021 39.3352 38.9484 37.7851 39.8702 36.8659L43.6949 33.0573C44.1182 32.6358 44.5925 32.4645 45.0476 32.4746C46.5125 32.5 47.7671 34.3903 46.4003 35.7513L45.0476 37.097L44.451 37.6911L45.0476 37.9882L49.7279 40.3178C50.8932 40.8992 51.1469 42.4493 50.2251 43.3685Z" fill="#FED843"/>
<path d="M46.4003 35.7513L45.0476 37.097V32.4746C46.5125 32.5 47.767 34.3903 46.4003 35.7513Z" fill="#FFB64C"/>
<path d="M50.2251 43.3684L46.4003 47.177C45.9783 47.5972 45.5028 47.7661 45.0476 47.7547V43.1374L45.6443 42.5432L45.0476 42.2462V37.9882L49.7279 40.3177C50.8932 40.8992 51.1469 42.4493 50.2251 43.3684Z" fill="#FFB64C"/>
</g>
<defs>
<clipPath id="clip0">
<rect x="0.807648" width="65.2763" height="65" fill="white"/>
</clipPath>
</defs>
</svg>
