<svg width="66" height="65" viewBox="0 0 66 65" fill="none" xmlns="http://www.w3.org/2000/svg">
<g clip-path="url(#clip0)">
<path d="M58.3093 43.4068C56.5548 48.1418 53.9014 52.2589 50.4217 55.6425C46.461 59.4937 41.2746 62.554 35.0065 64.737C34.8008 64.8084 34.5862 64.8669 34.3706 64.91C34.0857 64.9661 33.7958 64.9963 33.5085 65.0003H33.4522C33.1459 65.0003 32.8382 64.9696 32.5329 64.91C32.3172 64.8669 32.1056 64.8084 31.9009 64.7385C25.6253 62.5589 20.4325 59.5002 16.4678 55.6489C12.9866 52.2653 10.3337 48.1507 8.58163 43.4158C5.3958 34.8068 5.57708 25.3229 5.723 17.7018L5.72549 17.5848C5.75487 16.9554 5.7738 16.2944 5.78425 15.5644C5.83754 11.9805 8.69916 9.01541 12.2988 8.81556C19.804 8.39849 25.6099 5.96109 30.5707 1.14629L30.614 1.10662C31.4377 0.35432 32.4756 -0.0146374 33.5085 0.000735867C34.5045 0.0136296 35.4966 0.382091 36.2909 1.10662L36.3333 1.14629C41.295 5.96109 47.1009 8.39849 54.6061 8.81556C58.2058 9.01541 61.0674 11.9805 61.1207 15.5644C61.1311 16.2994 61.15 16.9594 61.1794 17.5848L61.1809 17.6343C61.3263 25.2699 61.5066 34.7725 58.3093 43.4068Z" fill="#00DD80"/>
<path d="M58.3092 43.4066C56.5547 48.1415 53.9013 52.2586 50.4216 55.6422C46.4608 59.4935 41.2745 62.5537 35.0064 64.7367C34.8007 64.8081 34.5861 64.8666 34.3704 64.9098C34.0856 64.9658 33.7957 64.9961 33.5084 65V0.000488281C34.5044 0.013382 35.4965 0.381844 36.2908 1.10637L36.3331 1.14604C41.2949 5.96084 47.1008 8.39825 54.606 8.81531C58.2056 9.01516 61.0673 11.9802 61.1205 15.5642C61.131 16.2991 61.1499 16.9592 61.1793 17.5845L61.1808 17.6341C61.3262 25.2696 61.5065 34.7723 58.3092 43.4066Z" fill="#00AA63"/>
<path d="M49.7194 32.5C49.7194 41.413 42.4518 48.6682 33.5084 48.7H33.4511C24.4813 48.7 17.1823 41.4324 17.1823 32.5C17.1823 23.5682 24.4813 16.3006 33.4511 16.3006H33.5084C42.4518 16.3323 49.7194 23.5875 49.7194 32.5Z" fill="white"/>
<path d="M49.7194 32.5C49.7194 41.413 42.4518 48.6682 33.5084 48.7V16.3006C42.4518 16.3323 49.7194 23.5875 49.7194 32.5Z" fill="#E1EBF0"/>
<path d="M40.8352 30.1673L33.5083 37.4641L31.9251 39.0406C31.5511 39.413 31.0606 39.599 30.5705 39.599C30.08 39.599 29.5899 39.413 29.2154 39.0406L25.8114 35.6496C25.0634 34.9047 25.0634 33.6982 25.8114 32.9528C26.5585 32.208 27.7716 32.208 28.5197 32.9528L30.5705 34.995L38.1269 27.4705C38.875 26.7252 40.0881 26.7252 40.8352 27.4705C41.5832 28.2154 41.5832 29.4234 40.8352 30.1673Z" fill="#B4D2D7"/>
<path d="M40.8352 30.1673L33.5084 37.4641V32.0691L38.127 27.4705C38.875 26.7252 40.0882 26.7252 40.8352 27.4705C41.5832 28.2154 41.5832 29.4234 40.8352 30.1673Z" fill="#6FA5AA"/>
</g>
<defs>
<clipPath id="clip0">
<rect x="0.685425" width="65.2763" height="65" fill="white"/>
</clipPath>
</defs>
</svg>
