<svg xmlns="http://www.w3.org/2000/svg" width="67" height="65" fill="none" viewBox="0 0 67 65"><g clip-path="url(#clip0)"><path fill="#B4E66E" d="M46.675 12.9593H7.42741C6.82539 12.9593 6.33722 13.4454 6.33722 14.0448V36.8423H9.60779C10.812 36.8423 11.7882 37.8143 11.7882 39.0135C11.7882 40.2125 10.8118 41.1846 9.60779 41.1846H6.33722V44.4413C6.33722 45.0408 6.82539 45.5269 7.42741 45.5269H47.7652V14.0448C47.7652 13.4454 47.2771 12.9593 46.675 12.9593Z"/><path fill="#FFDC64" d="M60.8478 30.3289H47.7652V45.5272H65.2085V34.6712C65.2085 32.273 63.2561 30.3289 60.8478 30.3289Z"/><path fill="#FFC850" d="M47.7652 33.5856H59.5759C60.7802 33.5856 61.7563 34.5575 61.7563 35.7567V45.527H47.7652V33.5856Z"/><path fill="#FFDC64" d="M56.4869 17.3017H47.7652V21.6441H59.7576V20.5585C59.7576 18.7597 58.2932 17.3017 56.4869 17.3017Z"/><path fill="#B4E6FF" d="M60.8478 30.3288L58.6673 21.6441H47.7652V30.3288H60.8478Z"/><path fill="#F1F4FB" d="M60.8478 34.6711H65.2087V39.0136H63.0283C61.824 39.0136 60.8479 38.0416 60.8479 36.8424V34.6711H60.8478Z"/><path fill="#E1A546" d="M55.3967 37.928C52.1109 37.928 49.2523 39.739 47.7652 42.4116V45.5271H64.043C63.5054 41.2441 59.8435 37.928 55.3967 37.928Z"/><path fill="#FFC850" d="M61.7562 40.6773V45.5272H64.043C63.8089 43.6624 62.9819 41.9816 61.7562 40.6773Z"/><path fill="#5B5D6E" d="M55.3967 52.0408C58.4072 52.0408 60.8478 49.6106 60.8478 46.6128C60.8478 43.615 58.4072 41.1848 55.3967 41.1848C52.3862 41.1848 49.9456 43.615 49.9456 46.6128C49.9456 49.6106 52.3862 52.0408 55.3967 52.0408Z"/><path fill="#9BD6FF" d="M52.1261 24.9008H59.485L58.6674 21.6441H47.7654V30.3288H51.0359V25.9864C51.0358 25.3869 51.524 24.9008 52.1261 24.9008Z"/><path fill="#A0D755" d="M19.4198 37.928C16.6668 37.928 14.2156 39.2011 12.6174 41.1847H9.60792H6.33722V44.4414C6.33722 45.0409 6.82539 45.527 7.42741 45.527H47.7652V41.1846H26.2221C24.6239 39.2011 22.1727 37.928 19.4198 37.928Z"/><path fill="#5B5D6E" d="M19.4198 52.0408C22.4303 52.0408 24.8709 49.6106 24.8709 46.6128C24.8709 43.615 22.4303 41.1848 19.4198 41.1848C16.4092 41.1848 13.9687 43.615 13.9687 46.6128C13.9687 49.6106 16.4092 52.0408 19.4198 52.0408Z"/><path fill="#000" d="M61.661 29.3723L59.9706 22.6393C60.4328 22.5415 60.7796 22.1333 60.7796 21.6441V20.5585C60.7796 18.2015 58.8538 16.284 56.4869 16.284H48.7873V14.0448C48.7873 12.885 47.8398 11.9415 46.675 11.9415H7.42741C6.26263 11.9415 5.31511 12.885 5.31511 14.0448V32.5C5.31511 33.062 5.77268 33.5178 6.33722 33.5178C6.90176 33.5178 7.35933 33.0621 7.35933 32.5V14.0448C7.35933 14.0074 7.3898 13.977 7.42741 13.977H46.6749C46.7125 13.977 46.743 14.0074 46.743 14.0448V32.5003C46.743 33.0623 47.2006 33.518 47.7651 33.518C48.3295 33.518 48.7872 33.0624 48.7872 32.5003V31.3465H60.8441C60.845 31.3465 60.8459 31.3468 60.8468 31.3468C60.8476 31.3468 60.8487 31.3466 60.8496 31.3466C62.3332 31.3475 63.5929 32.3173 64.0257 33.6535H60.8475C60.2831 33.6535 59.8254 34.1091 59.8254 34.6713V36.8424C59.8254 38.6009 61.262 40.0314 63.0279 40.0314H64.1863V44.5094H61.5138C60.6359 41.9853 58.2261 40.1669 55.3964 40.1669C52.5667 40.1669 50.1569 41.9852 49.2791 44.5094H48.787V36.8424C48.787 36.2804 48.3294 35.8246 47.7648 35.8246C47.2004 35.8246 46.7427 36.2803 46.7427 36.8424V44.5092H25.5371C24.6592 41.985 22.2495 40.1668 19.4198 40.1668C16.5901 40.1668 14.1802 41.985 13.3024 44.5092H7.42741C7.3898 44.5092 7.35933 44.4789 7.35933 44.4415V42.2024H11.7883C12.3527 42.2024 12.8104 41.7467 12.8104 41.1846C12.8104 40.6226 12.3528 40.1668 11.7883 40.1668H1.97646C1.41204 40.1668 0.954346 40.6225 0.954346 41.1846C0.954346 41.7466 1.41192 42.2024 1.97646 42.2024H5.31524V44.4415C5.31524 45.6013 6.26276 46.5448 7.42754 46.5448H12.9485C12.9482 46.5674 12.9467 46.5899 12.9467 46.6126C12.9467 50.1668 15.8506 53.0583 19.4198 53.0583C22.9889 53.0583 25.8928 50.1668 25.8928 46.6126C25.8928 46.5898 25.8913 46.5674 25.891 46.5448H48.9252C48.9249 46.5674 48.9234 46.5899 48.9234 46.6126C48.9234 50.1668 51.8273 53.0583 55.3964 53.0583C58.9656 53.0583 61.8695 50.1668 61.8695 46.6126C61.8695 46.5898 61.868 46.5674 61.8677 46.5448H65.2084C65.7728 46.5448 66.2305 46.0892 66.2305 45.527V34.671C66.2306 31.9909 64.2447 29.7639 61.661 29.3723ZM48.7873 22.6618H57.8693L59.5387 29.3111H48.7873V22.6618ZM56.4869 18.3195C57.7267 18.3195 58.7355 19.3239 58.7355 20.5585V20.6263H48.7873V18.3195H56.4869ZM19.4198 51.023C16.9776 51.023 14.9908 49.0447 14.9908 46.6127C14.9908 44.1808 16.9776 42.2025 19.4198 42.2025C21.8619 42.2025 23.8487 44.1808 23.8487 46.6127C23.8487 49.0447 21.8619 51.023 19.4198 51.023ZM55.3967 51.023C52.9546 51.023 50.9677 49.0447 50.9677 46.6127C50.9677 44.1808 52.9546 42.2025 55.3967 42.2025C57.8388 42.2025 59.8257 44.1808 59.8257 46.6127C59.8257 49.0447 57.8388 51.023 55.3967 51.023ZM63.0282 37.9958C62.3894 37.9958 61.8698 37.4783 61.8698 36.8423V35.6888H64.1864V37.9957H63.0282V37.9958Z"/><path fill="#000" d="M19.4198 44.5094C18.255 44.5094 17.3075 45.4529 17.3075 46.6128C17.3075 47.7726 18.255 48.7161 19.4198 48.7161C20.5845 48.7161 21.5321 47.7726 21.5321 46.6128C21.5321 45.4529 20.5845 44.5094 19.4198 44.5094Z"/><path fill="#000" d="M55.3967 44.5094C54.2319 44.5094 53.2844 45.4529 53.2844 46.6128C53.2844 47.7726 54.2319 48.7161 55.3967 48.7161C56.5615 48.7161 57.509 47.7726 57.509 46.6128C57.509 45.4529 56.5615 44.5094 55.3967 44.5094Z"/><path fill="#000" d="M27.1194 41.1847C27.1194 41.7467 27.577 42.2025 28.1416 42.2025H43.4044C43.9688 42.2025 44.4265 41.7469 44.4265 41.1847C44.4265 40.6227 43.9689 40.1669 43.4044 40.1669H28.1414C27.577 40.1669 27.1194 40.6227 27.1194 41.1847Z"/><path fill="#000" d="M4.15685 37.8601H17.2394C17.8038 37.8601 18.2615 37.4045 18.2615 36.8423C18.2615 36.2803 17.8039 35.8245 17.2394 35.8245H4.15685C3.59243 35.8245 3.13474 36.2802 3.13474 36.8423C3.13474 37.4045 3.59243 37.8601 4.15685 37.8601Z"/><path fill="#000" d="M35.0503 22.01L25.961 31.0606L21.2327 26.3523C20.8335 25.9548 20.1864 25.9548 19.7873 26.3523C19.3882 26.7498 19.3882 27.3941 19.7873 27.7916L25.2384 33.2196C25.4379 33.4184 25.6996 33.5177 25.961 33.5177C26.2225 33.5177 26.4841 33.4184 26.6837 33.2196L36.4955 23.4493C36.8947 23.0518 36.8947 22.4075 36.4955 22.01C36.0966 21.6126 35.4493 21.6126 35.0503 22.01Z"/></g><defs><clipPath id="clip0"><rect width="65.276" height="65" x=".954" fill="#fff"/></clipPath></defs></svg>