<svg xmlns="http://www.w3.org/2000/svg" width="86" height="85" fill="none" viewBox="0 0 86 85"><g clip-path="url(#clip0)"><path fill="red" d="M83.7827 22.0957C82.8028 18.4544 79.9319 15.5842 76.2913 14.6037C69.6397 12.7833 43.0332 12.7833 43.0332 12.7833C43.0332 12.7833 16.4273 12.7833 9.77571 14.5343C6.20509 15.5141 3.26416 18.4551 2.28429 22.0957C0.533997 28.7467 0.533997 42.5402 0.533997 42.5402C0.533997 42.5402 0.533997 56.4031 2.28429 62.9847C3.26481 66.6253 6.13506 69.4962 9.77636 70.4768C16.4974 72.2971 43.0338 72.2971 43.0338 72.2971C43.0338 72.2971 69.6397 72.2971 76.2913 70.5461C79.9326 69.5663 82.8028 66.6954 83.7834 63.0547C85.5336 56.4031 85.5336 42.6102 85.5336 42.6102C85.5336 42.6102 85.6037 28.7467 83.7827 22.0957Z"/><path fill="#fff" d="M34.5619 55.2834L56.6867 42.5404L34.5619 29.7974V55.2834Z"/></g><defs><clipPath id="clip0"><rect width="85" height="85" x=".534" fill="#fff"/></clipPath></defs></svg>